<svg width="37" height="37" viewBox="0 0 37 37" fill="none" xmlns="http://www.w3.org/2000/svg">
<circle cx="18.5" cy="18.5" r="18" stroke="#8E2158"/>
<path d="M25.134 17.3631C25.134 22.3411 18.7337 26.6079 18.7337 26.6079C18.7337 26.6079 12.3335 22.3411 12.3335 17.3631C12.3335 15.6657 13.0078 14.0377 14.2081 12.8375C15.4084 11.6372 17.0363 10.9629 18.7337 10.9629C20.4312 10.9629 22.0591 11.6372 23.2594 12.8375C24.4596 14.0377 25.134 15.6657 25.134 17.3631Z" stroke="#8E2158" stroke-linecap="round" stroke-linejoin="round"/>
<path d="M18.7335 19.4963C19.9118 19.4963 20.8669 18.5412 20.8669 17.3629C20.8669 16.1847 19.9118 15.2295 18.7335 15.2295C17.5553 15.2295 16.6001 16.1847 16.6001 17.3629C16.6001 18.5412 17.5553 19.4963 18.7335 19.4963Z" stroke="#8E2158" stroke-linecap="round" stroke-linejoin="round"/>
</svg>
