<svg width="38" height="38" viewBox="0 0 38 38" fill="none" xmlns="http://www.w3.org/2000/svg">
<circle cx="19" cy="19" r="18.5" stroke="#8E2158"/>
<path d="M26.0365 26.9155V25.1562C26.0365 24.223 25.6658 23.3281 25.0059 22.6682C24.3461 22.0084 23.4511 21.6377 22.518 21.6377H15.4809C14.5478 21.6377 13.6528 22.0084 12.993 22.6682C12.3331 23.3281 11.9624 24.223 11.9624 25.1562V26.9155" stroke="#8E2158" stroke-width="2" stroke-linecap="round" stroke-linejoin="round"/>
<path d="M18.9995 18.1191C20.9427 18.1191 22.518 16.5438 22.518 14.6005C22.518 12.6573 20.9427 11.082 18.9995 11.082C17.0563 11.082 15.481 12.6573 15.481 14.6005C15.481 16.5438 17.0563 18.1191 18.9995 18.1191Z" stroke="#8E2158" stroke-width="2" stroke-linecap="round" stroke-linejoin="round"/>
</svg>
