<svg width="59" height="59" viewBox="0 0 59 59" fill="none" xmlns="http://www.w3.org/2000/svg">
<path d="M39.3337 39.3333L29.5003 29.5L19.667 39.3333" stroke="#8E2158" stroke-width="2" stroke-linecap="round" stroke-linejoin="round"/>
<path d="M29.5 29.5V51.625" stroke="#8E2158" stroke-width="3" stroke-linecap="round" stroke-linejoin="round"/>
<path d="M50.1255 45.2086C52.5232 43.9014 54.4173 41.833 55.5089 39.3298C56.6005 36.8266 56.8274 34.0311 56.1538 31.3846C55.4802 28.7381 53.9445 26.3913 51.789 24.7145C49.6335 23.0378 46.981 22.1266 44.2501 22.1248H41.1526C40.4085 19.2467 39.0216 16.5747 37.0962 14.3098C35.1708 12.0448 32.757 10.2458 30.0362 9.04798C27.3155 7.85017 24.3586 7.28474 21.3879 7.3942C18.4171 7.50365 15.5099 8.28514 12.8846 9.67991C10.2594 11.0747 7.98453 13.0464 6.23103 15.447C4.47753 17.8475 3.29103 20.6143 2.76074 23.5393C2.23046 26.4644 2.37018 29.4716 3.1694 32.3349C3.96863 35.1982 5.40656 37.8431 7.37509 40.0706" stroke="#8E2158" stroke-width="3" stroke-linecap="round" stroke-linejoin="round"/>
<path d="M39.3337 39.3333L29.5003 29.5L19.667 39.3333" stroke="#8E2158" stroke-width="3" stroke-linecap="round" stroke-linejoin="round"/>
</svg>
